<svg width="155" height="45" viewBox="0 0 155 45" fill="none" xmlns="http://www.w3.org/2000/svg">
<g filter="url(#filter0_d_105_2)">
<path d="M4.87201 7.10398H13.8V36H19.272V7.10398H28.152V2.63998H4.87201V7.10398Z" fill="white"/>
<path d="M39.1658 22.08C39.1658 16.464 41.6618 14.784 45.6938 14.784H47.0858V9.11998C43.3418 9.11998 40.7018 10.752 39.1658 13.392V9.55198H33.6938V36H39.1658V22.08Z" fill="white"/>
<path d="M63.2516 13.728C67.3316 13.728 70.5476 16.32 70.6436 20.4H56.0036C56.5796 16.224 59.5556 13.728 63.2516 13.728ZM75.6356 28.128H69.7316C68.7236 30.192 66.8516 31.824 63.4916 31.824C59.4596 31.824 56.3396 29.184 55.9556 24.816H76.1636C76.3076 23.904 76.3556 23.04 76.3556 22.128C76.3556 14.352 71.0276 9.11998 63.4916 9.11998C55.6676 9.11998 50.2916 14.448 50.2916 22.752C50.2916 31.056 55.9076 36.432 63.4916 36.432C69.9716 36.432 74.1476 32.736 75.6356 28.128Z" fill="white"/>
<path d="M81.7406 36H87.2126V0.47998H81.7406V36Z" fill="white"/>
<path d="M119.597 22.752C119.597 14.448 113.645 9.11998 106.109 9.11998C98.5729 9.11998 92.6209 14.448 92.6209 22.752C92.6209 31.056 98.3329 36.432 105.869 36.432C113.453 36.432 119.597 31.056 119.597 22.752ZM98.1889 22.752C98.1889 16.752 101.885 13.872 106.013 13.872C110.093 13.872 113.981 16.752 113.981 22.752C113.981 28.752 109.949 31.68 105.869 31.68C101.741 31.68 98.1889 28.752 98.1889 22.752Z" fill="white"/>
<path d="M150.206 22.752C150.206 14.448 144.254 9.11998 136.718 9.11998C129.182 9.11998 123.23 14.448 123.23 22.752C123.23 31.056 128.942 36.432 136.478 36.432C144.062 36.432 150.206 31.056 150.206 22.752ZM128.798 22.752C128.798 16.752 132.494 13.872 136.622 13.872C140.702 13.872 144.59 16.752 144.59 22.752C144.59 28.752 140.558 31.68 136.478 31.68C132.35 31.68 128.798 28.752 128.798 22.752Z" fill="white"/>
</g>
<defs>
<filter id="filter0_d_105_2" x="0.872009" y="0.47998" width="153.334" height="43.952" filterUnits="userSpaceOnUse" color-interpolation-filters="sRGB">
<feFlood flood-opacity="0" result="BackgroundImageFix"/>
<feColorMatrix in="SourceAlpha" type="matrix" values="0 0 0 0 0 0 0 0 0 0 0 0 0 0 0 0 0 0 127 0" result="hardAlpha"/>
<feOffset dy="4"/>
<feGaussianBlur stdDeviation="2"/>
<feComposite in2="hardAlpha" operator="out"/>
<feColorMatrix type="matrix" values="0 0 0 0 0 0 0 0 0 0 0 0 0 0 0 0 0 0 0.25 0"/>
<feBlend mode="normal" in2="BackgroundImageFix" result="effect1_dropShadow_105_2"/>
<feBlend mode="normal" in="SourceGraphic" in2="effect1_dropShadow_105_2" result="shape"/>
</filter>
</defs>
</svg>
